<svg xmlns="http://www.w3.org/2000/svg" width="1200" height="630" viewBox="0 0 1200 630" role="img" aria-label="EnergyQuant og-projects">
  <defs>
    <linearGradient id="bg" x1="0" y1="0" x2="1" y2="1">
      <stop offset="0%" stop-color="#0a0e1a"/>
      <stop offset="100%" stop-color="#1a1f35"/>
    </linearGradient>
  </defs>
  <rect width="1200" height="630" fill="url(#bg)"/>
  <g stroke="#5e7fa8" stroke-opacity="0.25">
    <path d="M0 80H1200M0 160H1200M0 240H1200M0 320H1200M0 400H1200M0 480H1200M0 560H1200"/>
    <path d="M120 0V630M240 0V630M360 0V630M480 0V630M600 0V630M720 0V630M840 0V630M960 0V630M1080 0V630"/>
  </g>
  <text x="80" y="300" font-family="Inter, Arial, sans-serif" font-size="64" font-weight="700" fill="#e6edf7">EnergyQuant</text>
  <text x="80" y="360" font-family="JetBrains Mono, monospace" font-size="28" fill="#76a9e8">og-projects</text>
  <text x="80" y="420" font-family="Inter, Arial, sans-serif" font-size="24" fill="#9fb7d6">AI + Energy Market Intelligence</text>
</svg>
