<svg xmlns="http://www.w3.org/2000/svg" width="1600" height="900" viewBox="0 0 1600 900" role="img" aria-label="EnergyQuant Office">
  <defs>
    <linearGradient id="bg" x1="0" y1="0" x2="1" y2="1">
      <stop offset="0%" stop-color="#0a0e1a"/>
      <stop offset="100%" stop-color="#173150"/>
    </linearGradient>
  </defs>
  <rect width="1600" height="900" fill="url(#bg)"/>
  <g stroke="#8cb2d8" stroke-opacity="0.2">
    <path d="M0 100H1600M0 200H1600M0 300H1600M0 400H1600M0 500H1600M0 600H1600M0 700H1600M0 800H1600"/>
    <path d="M100 0V900M200 0V900M300 0V900M400 0V900M500 0V900M600 0V900M700 0V900M800 0V900M900 0V900M1000 0V900M1100 0V900M1200 0V900M1300 0V900M1400 0V900M1500 0V900"/>
  </g>
  <text x="100" y="430" font-family="Inter, Arial, sans-serif" font-size="64" font-weight="700" fill="#ecf2fb">Contact Office Image</text>
  <text x="100" y="500" font-family="JetBrains Mono, monospace" font-size="26" fill="#82b5ea">Replace with downloaded local asset</text>
</svg>
