<svg xmlns="http://www.w3.org/2000/svg" width="1200" height="800" viewBox="0 0 1200 800" role="img" aria-label="EnergyQuant Project 1">
  <defs>
    <linearGradient id="bg" x1="0" y1="0" x2="1" y2="1">
      <stop offset="0%" stop-color="#0d1525"/>
      <stop offset="100%" stop-color="#10243b"/>
    </linearGradient>
  </defs>
  <rect width="1200" height="800" fill="url(#bg)"/>
  <g stroke="#88a9ca" stroke-opacity="0.2">
    <path d="M0 100H1200M0 200H1200M0 300H1200M0 400H1200M0 500H1200M0 600H1200M0 700H1200"/>
    <path d="M100 0V800M200 0V800M300 0V800M400 0V800M500 0V800M600 0V800M700 0V800M800 0V800M900 0V800M1000 0V800M1100 0V800"/>
  </g>
  <text x="70" y="380" font-family="Inter, Arial, sans-serif" font-size="56" font-weight="700" fill="#ecf2fb">Project Image 1</text>
  <text x="70" y="440" font-family="JetBrains Mono, monospace" font-size="24" fill="#7db2ea">Replace with downloaded local asset</text>
</svg>
